<svg xmlns="http://www.w3.org/2000/svg" width="129.898" height="30" viewBox="0 0 129.898 30">
  <g id="logo-2" transform="translate(-27.21 -35.76)">
    <path id="Path_334" data-name="Path 334" d="M53.8,45.71c.379,0,.505.137.505.505v8.34H58.59c.369,0,.505.137.505.505V55.8c0,.369-.137.505-.505.505H52.946c-.369,0-.516-.137-.516-.505V46.215c0-.369.147-.505.516-.505Z" transform="translate(1.337 0.527)" fill="#394149"/>
    <path id="Path_335" data-name="Path 335" d="M62.31,49.4c0-2.432,1.537-3.9,4.212-3.9s4.212,1.464,4.212,3.9v3.243c0,2.432-1.548,3.9-4.212,3.9s-4.212-1.464-4.212-3.9Zm6.655,0c0-1.369-.853-2.106-2.39-2.106s-2.38.748-2.38,2.106V52.66c0,1.379.842,2.106,2.38,2.106s2.39-.758,2.39-2.106Z" transform="translate(1.86 0.516)" fill="#394149"/>
    <path id="Path_336" data-name="Path 336" d="M82.622,50.514c.411,0,.505.137.505.505v2a3.159,3.159,0,0,1-1.116,2.485,4.591,4.591,0,0,1-3.159.99c-2.727,0-4.212-1.464-4.212-3.9V49.335c0-2.4,1.537-3.875,4.212-3.875,2.106,0,3.475.832,4.054,2.5a.453.453,0,0,1-.316.653l-.821.284c-.358.126-.505.053-.632-.316a2.169,2.169,0,0,0-2.285-1.369c-1.548,0-2.39.748-2.39,2.106v3.349c0,1.379.853,2.106,2.39,2.106s2.485-.706,2.485-1.737v-.779H79.052c-.379,0-.516-.147-.516-.516V51.02c0-.369.137-.505.516-.505Z" transform="translate(2.514 0.514)" fill="#394149"/>
    <path id="Path_337" data-name="Path 337" d="M86.83,49.4c0-2.432,1.537-3.9,4.212-3.9s4.212,1.464,4.212,3.9v3.243c0,2.432-1.548,3.9-4.212,3.9s-4.212-1.464-4.212-3.9Zm6.644,0c0-1.369-.853-2.106-2.38-2.106s-2.39.748-2.39,2.106V52.66c0,1.379.853,2.106,2.39,2.106s2.38-.758,2.38-2.106Z" transform="translate(3.16 0.516)" fill="#394149"/>
    <path id="Path_338" data-name="Path 338" d="M99.54,46.015c0-.232.074-.305.305-.305h.484c.232,0,.284.074.284.305V56c0,.232,0,.305-.284.305h-.484c-.232,0-.305-.074-.305-.305Z" transform="translate(3.834 0.527)" fill="#394149"/>
    <path id="Path_339" data-name="Path 339" d="M109.883,45.71a3.306,3.306,0,0,1,0,6.613h-3.159V56c0,.232-.053.305-.274.305h-.495c-.221,0-.305-.074-.305-.305V46.015c0-.232.084-.305.305-.305Zm-.095,5.57a2.3,2.3,0,1,0,0-4.591h-3.159V51.28Z" transform="translate(4.157 0.527)" fill="#394149"/>
    <path id="Path_340" data-name="Path 340" d="M120.823,45.511a3.8,3.8,0,0,1,3.917,2.3c.084.168,0,.305-.168.39l-.463.211c-.19.074-.263.063-.379-.137a2.864,2.864,0,0,0-2.906-1.727c-1.78,0-2.748.706-2.748,1.969a1.6,1.6,0,0,0,1.337,1.622,7.15,7.15,0,0,0,1.748.337,7.245,7.245,0,0,1,2.106.432,2.369,2.369,0,0,1,1.643,2.5c0,1.969-1.432,3.159-4.065,3.159A3.8,3.8,0,0,1,116.811,54a.284.284,0,0,1,.179-.4l.463-.168a.284.284,0,0,1,.379.179,3.012,3.012,0,0,0,3.012,1.9c1.99,0,2.969-.695,2.969-2.106a1.569,1.569,0,0,0-1.232-1.611,7.371,7.371,0,0,0-1.674-.295l-1.137-.147a10,10,0,0,1-1.053-.284,2.769,2.769,0,0,1-.937-.495,2.569,2.569,0,0,1-.842-2.011C117.012,46.712,118.391,45.511,120.823,45.511Z" transform="translate(4.747 0.516)" fill="#394149"/>
    <path id="Path_341" data-name="Path 341" d="M129.945,52.7a2.927,2.927,0,0,0,5.844,0V46.015c0-.232.074-.305.305-.305h.484c.232,0,.305.074.305.305v6.676c0,2.39-1.411,3.833-4.012,3.833s-4.012-1.443-4.012-3.833V46.015c0-.232.074-.305.295-.305h.495c.221,0,.295.074.295.305Z" transform="translate(5.388 0.527)" fill="#394149"/>
    <path id="Path_342" data-name="Path 342" d="M150.748,45.71c.232,0,.305.074.305.305V56c0,.232-.074.305-.305.305h-.442c-.221,0-.295-.074-.295-.305V49.922a19.549,19.549,0,0,1,.18-2.648l-.064,0a18.949,18.949,0,0,1-1.148,2.327L146.715,53.6a.369.369,0,0,1-.347.232h-.295a.39.39,0,0,1-.358-.232l-2.3-4.033a16.919,16.919,0,0,1-1.053-2.3H142.3a22.919,22.919,0,0,1,.168,2.664V56c0,.232-.074.305-.305.305h-.411c-.232,0-.305-.074-.305-.305V46.015c0-.232.074-.305.305-.305h.379a.421.421,0,0,1,.421.242l3.685,6.55,3.664-6.486c.116-.221.179-.253.411-.253Z" transform="translate(6.055 0.527)" fill="#394149"/>
    <path id="Path_343" data-name="Path 343" d="M36.4,54.493v7.613a1.1,1.1,0,0,1-2.2,0V54.5a1.864,1.864,0,0,0,1.053.358,1.811,1.811,0,0,0,1.148-.369Zm9.372-2.2a1.053,1.053,0,0,0-1.053,1.053v1.327a1.1,1.1,0,0,0,2.2,0V53.4a1.053,1.053,0,0,0-1.148-1.106ZM31.812,57.378a1.9,1.9,0,0,1-1.053-.358v7.634a1.106,1.106,0,1,0,2.211,0V57.073A1.927,1.927,0,0,1,31.812,57.378Zm10.53-7.371a1.053,1.053,0,0,0-1.106,1.053v5.865a1.106,1.106,0,0,0,2.211,0V51.134a1.053,1.053,0,0,0-1.158-1.106Zm-3.5,2.253A1.927,1.927,0,0,1,37.74,51.9v7.655a1.106,1.106,0,1,0,2.211,0V51.913a1.864,1.864,0,0,1-1.158.369Zm-9.424,5.865V36.739a.99.99,0,0,0-.99-.979H28.2a.99.99,0,0,0-.99.979V58.126a.99.99,0,0,0,.99.99h.232A.99.99,0,0,0,29.421,58.126Zm2.506-1.558H31.7a.99.99,0,0,1-.99-.99V39.288a.99.99,0,0,1,.99-.979h.232a.99.99,0,0,1,.99.979V55.6a.99.99,0,0,1-.99.99Zm3.485-2.506h-.242a.979.979,0,0,1-.979-.979V41.815a.979.979,0,0,1,.979-.99h.242a.99.99,0,0,1,.979.99V53.082a.979.979,0,0,1-.979.979Zm3.485-2.58h-.221a.99.99,0,0,1-.99-.979V44.437a.99.99,0,0,1,.99-1.053h.232a.99.99,0,0,1,.99.99v6.107a.99.99,0,0,1-.99,1Zm3.5-2.264h-.232a.99.99,0,0,1-.99-.99V46.659a.99.99,0,0,1,.99-.979h.232a.99.99,0,0,1,.99.979v1.569a.99.99,0,0,1-.979.99Z" transform="translate(0)" fill="#394149"/>
  </g>
</svg>
